<?xml version="1.0" standalone="no"?>
<svg xmlns="http://www.w3.org/2000/svg" xmlns:xlink="http://www.w3.org/1999/xlink" width="913pt" height="2467pt" viewBox="0.00 0.00 913.14 2466.89">
<g id="graph0" class="graph" transform="translate(-190.44994737044203,2526.564425872106) scale(1.0553014274581567)" data-name="G">

<polygon fill="#2e3e56" stroke="transparent" points="-4,4 -4,-2462.89 909.14,-2462.89 909.14,4 -4,4" style=""/>
<g id="clust1" class="cluster" data-name="cluster_01">

<polygon fill="#2e3e56" stroke="black" points="67.29,-2321.89 67.29,-2450.89 495.08,-2450.89 495.08,-2321.89 67.29,-2321.89" style=""/>
<text text-anchor="middle" x="281.18" y="-2434.29" font-family="Times,serif" font-size="14.00" style="">Legend</text>
</g>
<!-- BuidlHub -->
<g id="node1" class="node" pointer-events="visible" data-name="BuidlHub">

<ellipse fill="none" stroke="#445773" stroke-width="3" cx="140.29" cy="-383.89" rx="49.26" ry="18" style=""/>
<text text-anchor="middle" x="140.29" y="-379.69" font-family="Times,serif" font-size="14.00" fill="#f0f0f0" style="">BuidlHub</text>
</g>
<!-- BuidlHub&#45;&gt;BuidlHub -->
<g id="edge1" class="edge" data-name="BuidlHub-&gt;BuidlHub">

<path fill="none" stroke="#1bc6a6" stroke-width="2" d="M98.49,-393.48C64.87,-405.53 78.8,-419.89 140.29,-419.89 195.05,-419.89 212.09,-408.5 191.41,-397.49" style=""/>
<polygon fill="#1bc6a6" stroke="#1bc6a6" stroke-width="2" points="192.65,-394.22 182.08,-393.48 189.88,-400.65 192.65,-394.22" style=""/>
</g>
<!-- DataTypes -->
<g id="node12" class="node" pointer-events="visible" data-name="DataTypes">

<ellipse fill="none" stroke="#445773" stroke-width="3" cx="460.08" cy="-574.89" rx="52.73" ry="18" style=""/>
<text text-anchor="middle" x="460.08" y="-570.69" font-family="Times,serif" font-size="14.00" fill="#f0f0f0" style="">DataTypes</text>
</g>
<!-- BuidlHub&#45;&gt;DataTypes -->
<g id="edge8" class="edge" data-name="BuidlHub-&gt;DataTypes">

<path fill="none" stroke="white" stroke-width="2" d="M154.26,-401.39C180.66,-435.6 244.3,-511.2 316.58,-547.89 341.45,-560.52 371.49,-567.27 397.56,-570.87" style=""/>
<polygon fill="white" stroke="white" stroke-width="2" points="397.35,-574.37 407.71,-572.15 398.22,-567.43 397.35,-574.37" style=""/>
</g>
<!-- Events -->
<g id="node13" class="node" pointer-events="visible" data-name="Events">

<ellipse fill="none" stroke="#445773" stroke-width="3" cx="772.36" cy="-243.89" rx="37.14" ry="18" style=""/>
<text text-anchor="middle" x="772.36" y="-239.69" font-family="Times,serif" font-size="14.00" fill="#f0f0f0" style="">Events</text>
</g>
<!-- BuidlHub&#45;&gt;Events -->
<g id="edge3" class="edge" data-name="BuidlHub-&gt;Events">

<path fill="none" stroke="white" stroke-width="2" d="M167.18,-399.01C241.39,-440.17 458.83,-545.36 603.58,-455.89 634.02,-437.08 619.1,-413.23 639.58,-383.89 671.37,-338.36 717.49,-292.88 745.89,-266.62" style=""/>
<polygon fill="white" stroke="white" stroke-width="2" points="748.4,-269.07 753.41,-259.74 743.67,-263.91 748.4,-269.07" style=""/>
</g>
<!-- Errors -->
<g id="node15" class="node" pointer-events="visible" data-name="Errors">

<ellipse fill="none" stroke="#445773" stroke-width="3" cx="772.36" cy="-180.89" rx="35.34" ry="18" style=""/>
<text text-anchor="middle" x="772.36" y="-176.69" font-family="Times,serif" font-size="14.00" fill="#f0f0f0" style="">Errors</text>
</g>
<!-- BuidlHub&#45;&gt;Errors -->
<g id="edge2" class="edge" data-name="BuidlHub-&gt;Errors">

<path fill="none" stroke="white" stroke-width="2" d="M143.99,-365.73C153.92,-306.19 194.46,-116.52 316.58,-41.89 425.42,24.63 483.58,1.36 603.58,-41.89 666.9,-64.71 723.24,-122.95 751.73,-156.36" style=""/>
<polygon fill="white" stroke="white" stroke-width="2" points="749.25,-158.85 758.36,-164.28 754.62,-154.36 749.25,-158.85" style=""/>
</g>
<!-- BuidlingLogic -->
<g id="node16" class="node" pointer-events="visible" data-name="BuidlingLogic">

<ellipse fill="none" stroke="#445773" stroke-width="3" cx="460.08" cy="-212.89" rx="67.23" ry="18" style=""/>
<text text-anchor="middle" x="460.08" y="-208.69" font-family="Times,serif" font-size="14.00" fill="#f0f0f0" style="">BuidlingLogic</text>
</g>
<!-- BuidlHub&#45;&gt;BuidlingLogic -->
<g id="edge4" class="edge" data-name="BuidlHub-&gt;BuidlingLogic">

<path fill="none" stroke="white" stroke-width="2" d="M159.95,-367.36C190.65,-340.92 254.59,-288.96 316.58,-257.89 342.49,-244.9 372.93,-234.68 399,-227.28" style=""/>
<polygon fill="white" stroke="white" stroke-width="2" points="400.06,-230.62 408.77,-224.59 398.2,-223.88 400.06,-230.62" style=""/>
</g>
<!-- FundingLogic -->
<g id="node19" class="node" pointer-events="visible" data-name="FundingLogic">

<ellipse fill="none" stroke="#445773" stroke-width="3" cx="460.08" cy="-410.89" rx="65.52" ry="18" style=""/>
<text text-anchor="middle" x="460.08" y="-406.69" font-family="Times,serif" font-size="14.00" fill="#f0f0f0" style="">FundingLogic</text>
</g>
<!-- BuidlHub&#45;&gt;FundingLogic -->
<g id="edge5" class="edge" data-name="BuidlHub-&gt;FundingLogic">

<path fill="none" stroke="white" stroke-width="2" d="M188.52,-387.9C240.91,-392.36 326.03,-399.59 386.81,-404.75" style=""/>
<polygon fill="white" stroke="white" stroke-width="2" points="386.84,-408.27 397.1,-405.63 387.43,-401.29 386.84,-408.27" style=""/>
</g>
<!-- IAavePoolAddressesProvider -->
<g id="node42" class="node" pointer-events="visible" data-name="IAavePoolAddressesProvider">

<ellipse fill="none" stroke="#445773" stroke-width="3" cx="460.08" cy="-356.89" rx="125.08" ry="18" style=""/>
<text text-anchor="middle" x="460.08" y="-352.69" font-family="Times,serif" font-size="14.00" fill="#f0f0f0" style="">IAavePoolAddressesProvider</text>
</g>
<!-- BuidlHub&#45;&gt;IAavePoolAddressesProvider -->
<g id="edge6" class="edge" data-name="BuidlHub-&gt;IAavePoolAddressesProvider">

<path fill="none" stroke="white" stroke-width="2" d="M188.52,-379.88C228.81,-376.46 288.45,-371.39 341.5,-366.88" style=""/>
<polygon fill="white" stroke="white" stroke-width="2" points="341.99,-370.35 351.66,-366.02 341.4,-363.38 341.99,-370.35" style=""/>
</g>
<!-- TokenURILogic -->
<g id="node43" class="node" pointer-events="visible" data-name="TokenURILogic">

<ellipse fill="none" stroke="#445773" stroke-width="3" cx="460.08" cy="-520.89" rx="74.73" ry="18" style=""/>
<text text-anchor="middle" x="460.08" y="-516.69" font-family="Times,serif" font-size="14.00" fill="#f0f0f0" style="">TokenURILogic</text>
</g>
<!-- BuidlHub&#45;&gt;TokenURILogic -->
<g id="edge9" class="edge" data-name="BuidlHub-&gt;TokenURILogic">

<path fill="none" stroke="white" stroke-width="2" d="M163.05,-400.08C195.06,-423.14 257.45,-465.26 316.58,-488.89 338.62,-497.71 363.61,-504.35 386.43,-509.24" style=""/>
<polygon fill="white" stroke="white" stroke-width="2" points="385.91,-512.7 396.41,-511.29 387.32,-505.85 385.91,-512.7" style=""/>
</g>
<!-- MultiState -->
<g id="node48" class="node" pointer-events="visible" data-name="MultiState">

<ellipse fill="none" stroke="#445773" stroke-width="3" cx="460.08" cy="-140.89" rx="51.62" ry="18" style=""/>
<text text-anchor="middle" x="460.08" y="-136.69" font-family="Times,serif" font-size="14.00" fill="#f0f0f0" style="">MultiState</text>
</g>
<!-- BuidlHub&#45;&gt;MultiState -->
<g id="edge7" class="edge" data-name="BuidlHub-&gt;MultiState">

<path fill="none" stroke="white" stroke-width="2" d="M152.09,-366.22C176.54,-327.7 239.96,-235.65 316.58,-185.89 342.74,-168.9 375.76,-157.94 403.42,-151.1" style=""/>
<polygon fill="white" stroke="white" stroke-width="2" points="404.42,-154.46 413.35,-148.76 402.82,-147.65 404.42,-154.46" style=""/>
</g>
<!-- ERC721 -->
<g id="node2" class="node" pointer-events="visible" data-name="ERC721">

<ellipse fill="none" stroke="#445773" stroke-width="3" cx="460.08" cy="-682.89" rx="44.11" ry="18" style=""/>
<text text-anchor="middle" x="460.08" y="-678.69" font-family="Times,serif" font-size="14.00" fill="#f0f0f0" style="">ERC721</text>
</g>
<!-- ERC721&#45;&gt;ERC721 -->
<g id="edge10" class="edge" data-name="ERC721-&gt;ERC721">

<path fill="none" stroke="#1bc6a6" stroke-width="2" d="M421.13,-691.75C385.55,-703.95 398.53,-718.89 460.08,-718.89 515.38,-718.89 531.47,-706.83 508.37,-695.53" style=""/>
<polygon fill="#1bc6a6" stroke="#1bc6a6" stroke-width="2" points="509.61,-692.26 499.03,-691.75 506.98,-698.75 509.61,-692.26" style=""/>
</g>
<!-- IERC721Metadata -->
<g id="node6" class="node" pointer-events="visible" data-name="IERC721Metadata">

<ellipse fill="none" stroke="#445773" stroke-width="3" cx="772.36" cy="-682.89" rx="83.39" ry="18" style=""/>
<text text-anchor="middle" x="772.36" y="-678.69" font-family="Times,serif" font-size="14.00" fill="#f0f0f0" style="">IERC721Metadata</text>
</g>
<!-- ERC721&#45;&gt;IERC721Metadata -->
<g id="edge11" class="edge" data-name="ERC721-&gt;IERC721Metadata">

<path fill="none" stroke="white" stroke-width="2" d="M504.55,-682.89C549.47,-682.89 620.96,-682.89 678.64,-682.89" style=""/>
<polygon fill="white" stroke="white" stroke-width="2" points="678.87,-686.39 688.87,-682.89 678.87,-679.39 678.87,-686.39" style=""/>
</g>
<!-- IERC721 -->
<g id="node3" class="node" pointer-events="visible" data-name="IERC721">

<ellipse fill="none" stroke="#445773" stroke-width="3" cx="140.29" cy="-727.89" rx="47.54" ry="18" style=""/>
<text text-anchor="middle" x="140.29" y="-723.69" font-family="Times,serif" font-size="14.00" fill="#f0f0f0" style="">IERC721</text>
</g>
<!-- IERC165 -->
<g id="node4" class="node" pointer-events="visible" data-name="IERC165">

<ellipse fill="none" stroke="#445773" stroke-width="3" cx="140.29" cy="-781.89" rx="47.54" ry="18" style=""/>
<text text-anchor="middle" x="140.29" y="-777.69" font-family="Times,serif" font-size="14.00" fill="#f0f0f0" style="">IERC165</text>
</g>
<!-- IERC721Receiver -->
<g id="node5" class="node" pointer-events="visible" data-name="IERC721Receiver">

<ellipse fill="none" stroke="#445773" stroke-width="3" cx="140.29" cy="-835.89" rx="81.66" ry="18" style=""/>
<text text-anchor="middle" x="140.29" y="-831.69" font-family="Times,serif" font-size="14.00" fill="#f0f0f0" style="">IERC721Receiver</text>
</g>
<!-- Address -->
<g id="node7" class="node" pointer-events="visible" data-name="Address">

<ellipse fill="none" stroke="#445773" stroke-width="3" cx="140.29" cy="-889.89" rx="42.87" ry="18" style=""/>
<text text-anchor="middle" x="140.29" y="-885.69" font-family="Times,serif" font-size="14.00" fill="#f0f0f0" style="">Address</text>
</g>
<!-- Address&#45;&gt;Address -->
<g id="edge12" class="edge" data-name="Address-&gt;Address">

<path fill="none" stroke="#1bc6a6" stroke-width="2" d="M102.24,-898.21C63.94,-910.5 76.63,-925.89 140.29,-925.89 197.98,-925.89 213.81,-913.25 187.76,-901.73" style=""/>
<polygon fill="#1bc6a6" stroke="#1bc6a6" stroke-width="2" points="188.93,-898.43 178.34,-898.21 186.48,-904.99 188.93,-898.43" style=""/>
</g>
<!-- Context -->
<g id="node8" class="node" pointer-events="visible" data-name="Context">

<ellipse fill="none" stroke="#445773" stroke-width="3" cx="140.29" cy="-961.89" rx="41.73" ry="18" style=""/>
<text text-anchor="middle" x="140.29" y="-957.69" font-family="Times,serif" font-size="14.00" fill="#f0f0f0" style="">Context</text>
</g>
<!-- Strings -->
<g id="node9" class="node" pointer-events="visible" data-name="Strings">

<ellipse fill="none" stroke="#445773" stroke-width="3" cx="772.36" cy="-520.89" rx="38.31" ry="18" style=""/>
<text text-anchor="middle" x="772.36" y="-516.69" font-family="Times,serif" font-size="14.00" fill="#f0f0f0" style="">Strings</text>
</g>
<!-- Strings&#45;&gt;Strings -->
<g id="edge13" class="edge" data-name="Strings-&gt;Strings">

<path fill="none" stroke="#1bc6a6" stroke-width="2" d="M737.29,-528.49C696.99,-540.89 708.68,-556.89 772.36,-556.89 830.32,-556.89 845.21,-543.64 817.03,-531.91" style=""/>
<polygon fill="#1bc6a6" stroke="#1bc6a6" stroke-width="2" points="818.03,-528.55 807.43,-528.49 815.68,-535.14 818.03,-528.55" style=""/>
</g>
<!-- ERC165 -->
<g id="node10" class="node" pointer-events="visible" data-name="ERC165">

<ellipse fill="none" stroke="#445773" stroke-width="3" cx="140.29" cy="-1015.89" rx="44.11" ry="18" style=""/>
<text text-anchor="middle" x="140.29" y="-1011.69" font-family="Times,serif" font-size="14.00" fill="#f0f0f0" style="">ERC165</text>
</g>
<!-- ERC165&#45;&gt;ERC165 -->
<g id="edge14" class="edge" data-name="ERC165-&gt;ERC165">

<path fill="none" stroke="#1bc6a6" stroke-width="2" d="M101.13,-1024.57C64.2,-1036.8 77.25,-1051.89 140.29,-1051.89 197.17,-1051.89 213.35,-1039.6 188.83,-1028.22" style=""/>
<polygon fill="#1bc6a6" stroke="#1bc6a6" stroke-width="2" points="190.03,-1024.93 179.44,-1024.57 187.5,-1031.45 190.03,-1024.93" style=""/>
</g>
<!-- IBuidlHub -->
<g id="node11" class="node" pointer-events="visible" data-name="IBuidlHub">

<ellipse fill="none" stroke="#445773" stroke-width="3" cx="140.29" cy="-1087.89" rx="52.2" ry="18" style=""/>
<text text-anchor="middle" x="140.29" y="-1083.69" font-family="Times,serif" font-size="14.00" fill="#f0f0f0" style="">IBuidlHub</text>
</g>
<!-- Constants -->
<g id="node14" class="node" pointer-events="visible" data-name="Constants">

<ellipse fill="none" stroke="#445773" stroke-width="3" cx="140.29" cy="-1141.89" rx="49.26" ry="18" style=""/>
<text text-anchor="middle" x="140.29" y="-1137.69" font-family="Times,serif" font-size="14.00" fill="#f0f0f0" style="">Constants</text>
</g>
<!-- BuidlingLogic&#45;&gt;Events -->
<g id="edge17" class="edge" data-name="BuidlingLogic-&gt;Events">

<path fill="none" stroke="white" stroke-width="2" d="M523.5,-219.13C583.22,-225.09 671.91,-233.96 725.42,-239.3" style=""/>
<polygon fill="white" stroke="white" stroke-width="2" points="725.34,-242.81 735.64,-240.32 726.04,-235.85 725.34,-242.81" style=""/>
</g>
<!-- BuidlingLogic&#45;&gt;Errors -->
<g id="edge16" class="edge" data-name="BuidlingLogic-&gt;Errors">

<path fill="none" stroke="white" stroke-width="2" d="M523.12,-206.49C583.64,-200.25 674.15,-190.92 727.52,-185.41" style=""/>
<polygon fill="white" stroke="white" stroke-width="2" points="728.1,-188.87 737.68,-184.36 727.38,-181.91 728.1,-188.87" style=""/>
</g>
<!-- BuidlingLogic&#45;&gt;BuidlingLogic -->
<g id="edge15" class="edge" data-name="BuidlingLogic-&gt;BuidlingLogic">

<path fill="none" stroke="#1bc6a6" stroke-width="2" d="M411.61,-225.62C388.77,-236.89 404.93,-248.89 460.08,-248.89 505.75,-248.89 524.68,-240.66 516.87,-231.43" style=""/>
<polygon fill="#1bc6a6" stroke="#1bc6a6" stroke-width="2" points="518.75,-228.48 508.55,-225.62 514.74,-234.22 518.75,-228.48" style=""/>
</g>
<!-- IBackModule -->
<g id="node17" class="node" pointer-events="visible" data-name="IBackModule">

<ellipse fill="none" stroke="#445773" stroke-width="3" cx="140.29" cy="-1195.89" rx="64.27" ry="18" style=""/>
<text text-anchor="middle" x="140.29" y="-1191.69" font-family="Times,serif" font-size="14.00" fill="#f0f0f0" style="">IBackModule</text>
</g>
<!-- IInvestModule -->
<g id="node18" class="node" pointer-events="visible" data-name="IInvestModule">

<ellipse fill="none" stroke="#445773" stroke-width="3" cx="140.29" cy="-1249.89" rx="67.79" ry="18" style=""/>
<text text-anchor="middle" x="140.29" y="-1245.69" font-family="Times,serif" font-size="14.00" fill="#f0f0f0" style="">IInvestModule</text>
</g>
<!-- FundingLogic&#45;&gt;Events -->
<g id="edge20" class="edge" data-name="FundingLogic-&gt;Events">

<path fill="none" stroke="white" stroke-width="2" d="M523.53,-406C549.25,-402.25 578.77,-395.61 603.58,-383.89 663.98,-355.36 720.67,-299.85 750.17,-267.96" style=""/>
<polygon fill="white" stroke="white" stroke-width="2" points="752.92,-270.15 757.07,-260.4 747.75,-265.43 752.92,-270.15" style=""/>
</g>
<!-- FundingLogic&#45;&gt;Errors -->
<g id="edge18" class="edge" data-name="FundingLogic-&gt;Errors">

<path fill="none" stroke="white" stroke-width="2" d="M525.37,-413.66C552.79,-411.41 583.12,-403.85 603.58,-383.89 657.94,-330.88 587.37,-272.02 639.58,-216.89 661.88,-193.35 697.94,-184.69 726.71,-181.72" style=""/>
<polygon fill="white" stroke="white" stroke-width="2" points="727.26,-185.19 736.94,-180.87 726.68,-178.21 727.26,-185.19" style=""/>
</g>
<!-- FundingLogic&#45;&gt;FundingLogic -->
<g id="edge19" class="edge" data-name="FundingLogic-&gt;FundingLogic">

<path fill="none" stroke="#1bc6a6" stroke-width="2" d="M411.99,-423.44C388.6,-434.76 404.63,-446.89 460.08,-446.89 506.43,-446.89 525.24,-438.41 516.5,-429.02" style=""/>
<polygon fill="#1bc6a6" stroke="#1bc6a6" stroke-width="2" points="518.42,-426.09 508.17,-423.44 514.53,-431.91 518.42,-426.09" style=""/>
</g>
<!-- Clones -->
<g id="node20" class="node" pointer-events="visible" data-name="Clones">

<ellipse fill="none" stroke="#445773" stroke-width="3" cx="772.36" cy="-410.89" rx="37.72" ry="18" style=""/>
<text text-anchor="middle" x="772.36" y="-406.69" font-family="Times,serif" font-size="14.00" fill="#f0f0f0" style="">Clones</text>
</g>
<!-- FundingLogic&#45;&gt;Clones -->
<g id="edge21" class="edge" data-name="FundingLogic-&gt;Clones">

<path fill="none" stroke="white" stroke-width="2" d="M526.12,-410.89C585.27,-410.89 671.14,-410.89 724,-410.89" style=""/>
<polygon fill="white" stroke="white" stroke-width="2" points="724.12,-414.39 734.12,-410.89 724.12,-407.39 724.12,-414.39" style=""/>
</g>
<!-- Clones&#45;&gt;Clones -->
<g id="edge22" class="edge" data-name="Clones-&gt;Clones">

<path fill="none" stroke="#1bc6a6" stroke-width="2" d="M737.58,-418.4C696.93,-430.82 708.53,-446.89 772.36,-446.89 830.46,-446.89 845.28,-433.58 816.83,-421.82" style=""/>
<polygon fill="#1bc6a6" stroke="#1bc6a6" stroke-width="2" points="817.74,-418.43 807.14,-418.4 815.41,-425.03 817.74,-418.43" style=""/>
</g>
<!-- IERC20 -->
<g id="node21" class="node" pointer-events="visible" data-name="IERC20">

<ellipse fill="none" stroke="#445773" stroke-width="3" cx="460.08" cy="-1303.89" rx="42.88" ry="18" style=""/>
<text text-anchor="middle" x="460.08" y="-1299.69" font-family="Times,serif" font-size="14.00" fill="#f0f0f0" style="">IERC20</text>
</g>
<!-- SafeERC20 -->
<g id="node22" class="node" pointer-events="visible" data-name="SafeERC20">

<ellipse fill="none" stroke="#445773" stroke-width="3" cx="140.29" cy="-1303.89" rx="56.77" ry="18" style=""/>
<text text-anchor="middle" x="140.29" y="-1299.69" font-family="Times,serif" font-size="14.00" fill="#f0f0f0" style="">SafeERC20</text>
</g>
<!-- SafeERC20&#45;&gt;IERC20 -->
<g id="edge24" class="edge" data-name="SafeERC20-&gt;IERC20">

<path fill="none" stroke="white" stroke-width="2" d="M197.01,-1303.89C256.28,-1303.89 349.32,-1303.89 407.12,-1303.89" style=""/>
<polygon fill="white" stroke="white" stroke-width="2" points="407.13,-1307.39 417.13,-1303.89 407.13,-1300.39 407.13,-1307.39" style=""/>
</g>
<!-- SafeERC20&#45;&gt;SafeERC20 -->
<g id="edge23" class="edge" data-name="SafeERC20-&gt;SafeERC20">

<path fill="none" stroke="#1bc6a6" stroke-width="2" d="M95.11,-1314.76C65.91,-1326.53 80.97,-1339.89 140.29,-1339.89 191.72,-1339.89 209.88,-1329.84 194.76,-1319.5" style=""/>
<polygon fill="#1bc6a6" stroke="#1bc6a6" stroke-width="2" points="195.97,-1316.19 185.47,-1314.76 192.79,-1322.42 195.97,-1316.19" style=""/>
</g>
<!-- IBackNFT -->
<g id="node23" class="node" pointer-events="visible" data-name="IBackNFT">

<ellipse fill="none" stroke="#445773" stroke-width="3" cx="140.29" cy="-1375.89" rx="52.18" ry="18" style=""/>
<text text-anchor="middle" x="140.29" y="-1371.69" font-family="Times,serif" font-size="14.00" fill="#f0f0f0" style="">IBackNFT</text>
</g>
<!-- BackNFT -->
<g id="node24" class="node" pointer-events="visible" data-name="BackNFT">

<ellipse fill="none" stroke="#445773" stroke-width="3" cx="460.08" cy="-68.89" rx="49.24" ry="18" style=""/>
<text text-anchor="middle" x="460.08" y="-64.69" font-family="Times,serif" font-size="14.00" fill="#f0f0f0" style="">BackNFT</text>
</g>
<!-- BackNFT&#45;&gt;Events -->
<g id="edge27" class="edge" data-name="BackNFT-&gt;Events">

<path fill="none" stroke="white" stroke-width="2" d="M508.06,-73.22C538.72,-78.35 577.71,-89.52 603.58,-113.89 636.15,-144.56 606.42,-177.86 639.58,-207.89 662.73,-228.85 696.93,-237.78 724.69,-241.5" style=""/>
<polygon fill="white" stroke="white" stroke-width="2" points="724.64,-245.02 734.97,-242.68 725.44,-238.06 724.64,-245.02" style=""/>
</g>
<!-- BackNFT&#45;&gt;Errors -->
<g id="edge25" class="edge" data-name="BackNFT-&gt;Errors">

<path fill="none" stroke="white" stroke-width="2" d="M498.84,-79.98C527.71,-88.66 568.4,-101.33 603.58,-113.89 649.56,-130.3 701.64,-151.52 735.42,-165.64" style=""/>
<polygon fill="white" stroke="white" stroke-width="2" points="734.28,-168.96 744.86,-169.6 736.99,-162.51 734.28,-168.96" style=""/>
</g>
<!-- BackNFT&#45;&gt;BackNFT -->
<g id="edge26" class="edge" data-name="BackNFT-&gt;BackNFT">

<path fill="none" stroke="#1bc6a6" stroke-width="2" d="M418.58,-78.66C386.22,-90.68 400.06,-104.89 460.08,-104.89 513.3,-104.89 530.21,-93.72 510.8,-82.81" style=""/>
<polygon fill="#1bc6a6" stroke="#1bc6a6" stroke-width="2" points="512.14,-79.57 501.58,-78.66 509.26,-85.95 512.14,-79.57" style=""/>
</g>
<!-- NFTBaseUpgradeable -->
<g id="node25" class="node" pointer-events="visible" data-name="NFTBaseUpgradeable">

<ellipse fill="none" stroke="#445773" stroke-width="3" cx="140.29" cy="-1429.89" rx="97.27" ry="18" style=""/>
<text text-anchor="middle" x="140.29" y="-1425.69" font-family="Times,serif" font-size="14.00" fill="#f0f0f0" style="">NFTBaseUpgradeable</text>
</g>
<!-- NFTBaseUpgradeable&#45;&gt;NFTBaseUpgradeable -->
<g id="edge28" class="edge" data-name="NFTBaseUpgradeable-&gt;NFTBaseUpgradeable">

<path fill="none" stroke="#1bc6a6" stroke-width="2" d="M86.49,-1445.06C70.18,-1455.56 88.12,-1465.89 140.29,-1465.89 177.79,-1465.89 197.6,-1460.55 199.72,-1453.65" style=""/>
<polygon fill="#1bc6a6" stroke="#1bc6a6" stroke-width="2" points="202.5,-1451.5 194.09,-1445.06 196.64,-1455.34 202.5,-1451.5" style=""/>
</g>
<!-- ERC721EnumerableUpgradeable -->
<g id="node26" class="node" pointer-events="visible" data-name="ERC721EnumerableUpgradeable">

<ellipse fill="none" stroke="#445773" stroke-width="3" cx="140.29" cy="-1501.89" rx="140.08" ry="18" style=""/>
<text text-anchor="middle" x="140.29" y="-1497.69" font-family="Times,serif" font-size="14.00" fill="#f0f0f0" style="">ERC721EnumerableUpgradeable</text>
</g>
<!-- ERC721EnumerableUpgradeable&#45;&gt;ERC721EnumerableUpgradeable -->
<g id="edge29" class="edge" data-name="ERC721EnumerableUpgradeable-&gt;ERC721EnumerableUpgradeable">

<path fill="none" stroke="#1bc6a6" stroke-width="2" d="M84.39,-1518.56C71.97,-1528.52 90.6,-1537.89 140.29,-1537.89 172.12,-1537.89 191.2,-1534.04 197.55,-1528.66" style=""/>
<polygon fill="#1bc6a6" stroke="#1bc6a6" stroke-width="2" points="200.99,-1528 196.19,-1518.56 194.05,-1528.93 200.99,-1528" style=""/>
</g>
<!-- ERC721Upgradeable -->
<g id="node27" class="node" pointer-events="visible" data-name="ERC721Upgradeable">

<ellipse fill="none" stroke="#445773" stroke-width="3" cx="460.08" cy="-1528.89" rx="93.77" ry="18" style=""/>
<text text-anchor="middle" x="460.08" y="-1524.69" font-family="Times,serif" font-size="14.00" fill="#f0f0f0" style="">ERC721Upgradeable</text>
</g>
<!-- ERC721EnumerableUpgradeable&#45;&gt;ERC721Upgradeable -->
<g id="edge31" class="edge" data-name="ERC721EnumerableUpgradeable-&gt;ERC721Upgradeable">

<path fill="none" stroke="white" stroke-width="2" d="M257.82,-1511.79C292.65,-1514.75 330.42,-1517.96 363.73,-1520.79" style=""/>
<polygon fill="white" stroke="white" stroke-width="2" points="363.65,-1524.3 373.91,-1521.66 364.25,-1517.32 363.65,-1524.3" style=""/>
</g>
<!-- IERC721EnumerableUpgradeable -->
<g id="node37" class="node" pointer-events="visible" data-name="IERC721EnumerableUpgradeable">

<ellipse fill="none" stroke="#445773" stroke-width="3" cx="460.08" cy="-1474.89" rx="143.51" ry="18" style=""/>
<text text-anchor="middle" x="460.08" y="-1470.69" font-family="Times,serif" font-size="14.00" fill="#f0f0f0" style="">IERC721EnumerableUpgradeable</text>
</g>
<!-- ERC721EnumerableUpgradeable&#45;&gt;IERC721EnumerableUpgradeable -->
<g id="edge30" class="edge" data-name="ERC721EnumerableUpgradeable-&gt;IERC721EnumerableUpgradeable">

<path fill="none" stroke="white" stroke-width="2" d="M257.82,-1491.99C281.45,-1489.98 306.44,-1487.86 330.47,-1485.82" style=""/>
<polygon fill="white" stroke="white" stroke-width="2" points="331.03,-1489.28 340.7,-1484.95 330.44,-1482.31 331.03,-1489.28" style=""/>
</g>
<!-- ERC721Upgradeable&#45;&gt;ERC721Upgradeable -->
<g id="edge32" class="edge" data-name="ERC721Upgradeable-&gt;ERC721Upgradeable">

<path fill="none" stroke="#1bc6a6" stroke-width="2" d="M407.58,-1543.87C391.09,-1554.43 408.59,-1564.89 460.08,-1564.89 497.89,-1564.89 517.38,-1559.25 518.52,-1552.07" style=""/>
<polygon fill="#1bc6a6" stroke="#1bc6a6" stroke-width="2" points="521.28,-1549.91 512.58,-1543.87 515.62,-1554.02 521.28,-1549.91" style=""/>
</g>
<!-- IERC721MetadataUpgradeable -->
<g id="node31" class="node" pointer-events="visible" data-name="IERC721MetadataUpgradeable">

<ellipse fill="none" stroke="#445773" stroke-width="3" cx="772.36" cy="-1528.89" rx="132.55" ry="18" style=""/>
<text text-anchor="middle" x="772.36" y="-1524.69" font-family="Times,serif" font-size="14.00" fill="#f0f0f0" style="">IERC721MetadataUpgradeable</text>
</g>
<!-- ERC721Upgradeable&#45;&gt;IERC721MetadataUpgradeable -->
<g id="edge33" class="edge" data-name="ERC721Upgradeable-&gt;IERC721MetadataUpgradeable">

<path fill="none" stroke="white" stroke-width="2" d="M553.75,-1528.89C577.48,-1528.89 603.54,-1528.89 629.14,-1528.89" style=""/>
<polygon fill="white" stroke="white" stroke-width="2" points="629.3,-1532.39 639.3,-1528.89 629.3,-1525.39 629.3,-1532.39" style=""/>
</g>
<!-- IERC721Upgradeable -->
<g id="node28" class="node" pointer-events="visible" data-name="IERC721Upgradeable">

<ellipse fill="none" stroke="#445773" stroke-width="3" cx="140.29" cy="-1573.89" rx="96.7" ry="18" style=""/>
<text text-anchor="middle" x="140.29" y="-1569.69" font-family="Times,serif" font-size="14.00" fill="#f0f0f0" style="">IERC721Upgradeable</text>
</g>
<!-- IERC165Upgradeable -->
<g id="node29" class="node" pointer-events="visible" data-name="IERC165Upgradeable">

<ellipse fill="none" stroke="#445773" stroke-width="3" cx="140.29" cy="-1627.89" rx="96.7" ry="18" style=""/>
<text text-anchor="middle" x="140.29" y="-1623.69" font-family="Times,serif" font-size="14.00" fill="#f0f0f0" style="">IERC165Upgradeable</text>
</g>
<!-- IERC721ReceiverUpgradeable -->
<g id="node30" class="node" pointer-events="visible" data-name="IERC721ReceiverUpgradeable">

<ellipse fill="none" stroke="#445773" stroke-width="3" cx="140.29" cy="-1681.89" rx="131.33" ry="18" style=""/>
<text text-anchor="middle" x="140.29" y="-1677.69" font-family="Times,serif" font-size="14.00" fill="#f0f0f0" style="">IERC721ReceiverUpgradeable</text>
</g>
<!-- AddressUpgradeable -->
<g id="node32" class="node" pointer-events="visible" data-name="AddressUpgradeable">

<ellipse fill="none" stroke="#445773" stroke-width="3" cx="460.08" cy="-1735.89" rx="92.03" ry="18" style=""/>
<text text-anchor="middle" x="460.08" y="-1731.69" font-family="Times,serif" font-size="14.00" fill="#f0f0f0" style="">AddressUpgradeable</text>
</g>
<!-- AddressUpgradeable&#45;&gt;AddressUpgradeable -->
<g id="edge34" class="edge" data-name="AddressUpgradeable-&gt;AddressUpgradeable">

<path fill="none" stroke="#1bc6a6" stroke-width="2" d="M407.58,-1750.87C391.09,-1761.43 408.59,-1771.89 460.08,-1771.89 497.89,-1771.89 517.38,-1766.25 518.52,-1759.07" style=""/>
<polygon fill="#1bc6a6" stroke="#1bc6a6" stroke-width="2" points="521.28,-1756.91 512.58,-1750.87 515.62,-1761.02 521.28,-1756.91" style=""/>
</g>
<!-- ContextUpgradeable -->
<g id="node33" class="node" pointer-events="visible" data-name="ContextUpgradeable">

<ellipse fill="none" stroke="#445773" stroke-width="3" cx="140.29" cy="-1807.89" rx="90.89" ry="18" style=""/>
<text text-anchor="middle" x="140.29" y="-1803.69" font-family="Times,serif" font-size="14.00" fill="#f0f0f0" style="">ContextUpgradeable</text>
</g>
<!-- Initializable -->
<g id="node34" class="node" pointer-events="visible" data-name="Initializable">

<ellipse fill="none" stroke="#445773" stroke-width="3" cx="140.29" cy="-1735.89" rx="57.3" ry="18" style=""/>
<text text-anchor="middle" x="140.29" y="-1731.69" font-family="Times,serif" font-size="14.00" fill="#f0f0f0" style="">Initializable</text>
</g>
<!-- Initializable&#45;&gt;AddressUpgradeable -->
<g id="edge36" class="edge" data-name="Initializable-&gt;AddressUpgradeable">

<path fill="none" stroke="white" stroke-width="2" d="M197.74,-1735.89C242.06,-1735.89 304.91,-1735.89 357.88,-1735.89" style=""/>
<polygon fill="white" stroke="white" stroke-width="2" points="357.98,-1739.39 367.98,-1735.89 357.98,-1732.39 357.98,-1739.39" style=""/>
</g>
<!-- Initializable&#45;&gt;Initializable -->
<g id="edge35" class="edge" data-name="Initializable-&gt;Initializable">

<path fill="none" stroke="#1bc6a6" stroke-width="2" d="M94.65,-1746.95C66.07,-1758.67 81.28,-1771.89 140.29,-1771.89 191.46,-1771.89 209.69,-1761.95 194.99,-1751.66" style=""/>
<polygon fill="#1bc6a6" stroke="#1bc6a6" stroke-width="2" points="196.41,-1748.46 185.92,-1746.95 193.18,-1754.67 196.41,-1748.46" style=""/>
</g>
<!-- StringsUpgradeable -->
<g id="node35" class="node" pointer-events="visible" data-name="StringsUpgradeable">

<ellipse fill="none" stroke="#445773" stroke-width="3" cx="140.29" cy="-1861.89" rx="87.97" ry="18" style=""/>
<text text-anchor="middle" x="140.29" y="-1857.69" font-family="Times,serif" font-size="14.00" fill="#f0f0f0" style="">StringsUpgradeable</text>
</g>
<!-- StringsUpgradeable&#45;&gt;StringsUpgradeable -->
<g id="edge37" class="edge" data-name="StringsUpgradeable-&gt;StringsUpgradeable">

<path fill="none" stroke="#1bc6a6" stroke-width="2" d="M87.71,-1876.31C69.35,-1887.06 86.87,-1897.89 140.29,-1897.89 181.18,-1897.89 201.04,-1891.54 199.86,-1883.74" style=""/>
<polygon fill="#1bc6a6" stroke="#1bc6a6" stroke-width="2" points="202.27,-1881.19 192.87,-1876.31 197.17,-1885.99 202.27,-1881.19" style=""/>
</g>
<!-- ERC165Upgradeable -->
<g id="node36" class="node" pointer-events="visible" data-name="ERC165Upgradeable">

<ellipse fill="none" stroke="#445773" stroke-width="3" cx="140.29" cy="-1933.89" rx="93.77" ry="18" style=""/>
<text text-anchor="middle" x="140.29" y="-1929.69" font-family="Times,serif" font-size="14.00" fill="#f0f0f0" style="">ERC165Upgradeable</text>
</g>
<!-- ERC165Upgradeable&#45;&gt;ERC165Upgradeable -->
<g id="edge38" class="edge" data-name="ERC165Upgradeable-&gt;ERC165Upgradeable">

<path fill="none" stroke="#1bc6a6" stroke-width="2" d="M86.78,-1948.87C69.97,-1959.43 87.81,-1969.89 140.29,-1969.89 178.83,-1969.89 198.69,-1964.25 199.86,-1957.07" style=""/>
<polygon fill="#1bc6a6" stroke="#1bc6a6" stroke-width="2" points="202.55,-1954.83 193.8,-1948.87 196.93,-1958.99 202.55,-1954.83" style=""/>
</g>
<!-- IInvestNFT -->
<g id="node38" class="node" pointer-events="visible" data-name="IInvestNFT">

<ellipse fill="none" stroke="#445773" stroke-width="3" cx="140.29" cy="-2005.89" rx="56.19" ry="18" style=""/>
<text text-anchor="middle" x="140.29" y="-2001.69" font-family="Times,serif" font-size="14.00" fill="#f0f0f0" style="">IInvestNFT</text>
</g>
<!-- InvestNFT -->
<g id="node39" class="node" pointer-events="visible" data-name="InvestNFT">

<ellipse fill="none" stroke="#445773" stroke-width="3" cx="460.08" cy="-284.89" rx="52.76" ry="18" style=""/>
<text text-anchor="middle" x="460.08" y="-280.69" font-family="Times,serif" font-size="14.00" fill="#f0f0f0" style="">InvestNFT</text>
</g>
<!-- InvestNFT&#45;&gt;Events -->
<g id="edge41" class="edge" data-name="InvestNFT-&gt;Events">

<path fill="none" stroke="white" stroke-width="2" d="M509.56,-278.49C568.89,-270.65 668.56,-257.48 726.29,-249.85" style=""/>
<polygon fill="white" stroke="white" stroke-width="2" points="726.76,-253.31 736.22,-248.53 725.85,-246.38 726.76,-253.31" style=""/>
</g>
<!-- InvestNFT&#45;&gt;Errors -->
<g id="edge39" class="edge" data-name="InvestNFT-&gt;Errors">

<path fill="none" stroke="white" stroke-width="2" d="M513.02,-283.21C541.35,-280.35 576.14,-273.56 603.58,-257.89 624.64,-245.87 619.02,-229.74 639.58,-216.89 666.33,-200.18 700.86,-191.11 727.86,-186.26" style=""/>
<polygon fill="white" stroke="white" stroke-width="2" points="728.52,-189.7 737.81,-184.6 727.37,-182.8 728.52,-189.7" style=""/>
</g>
<!-- InvestNFT&#45;&gt;InvestNFT -->
<g id="edge40" class="edge" data-name="InvestNFT-&gt;InvestNFT">

<path fill="none" stroke="#1bc6a6" stroke-width="2" d="M416.66,-295.39C386.8,-307.25 401.27,-320.89 460.08,-320.89 511.53,-320.89 529.04,-310.45 512.61,-299.89" style=""/>
<polygon fill="#1bc6a6" stroke="#1bc6a6" stroke-width="2" points="514.01,-296.68 503.49,-295.39 510.91,-302.96 514.01,-296.68" style=""/>
</g>
<!-- IYieldTrustVault -->
<g id="node40" class="node" pointer-events="visible" data-name="IYieldTrustVault">

<ellipse fill="none" stroke="#445773" stroke-width="3" cx="140.29" cy="-2059.89" rx="77.59" ry="18" style=""/>
<text text-anchor="middle" x="140.29" y="-2055.69" font-family="Times,serif" font-size="14.00" fill="#f0f0f0" style="">IYieldTrustVault</text>
</g>
<!-- IERC4626 -->
<g id="node41" class="node" pointer-events="visible" data-name="IERC4626">

<ellipse fill="none" stroke="#445773" stroke-width="3" cx="140.29" cy="-2113.89" rx="52.2" ry="18" style=""/>
<text text-anchor="middle" x="140.29" y="-2109.69" font-family="Times,serif" font-size="14.00" fill="#f0f0f0" style="">IERC4626</text>
</g>
<!-- TokenURILogic&#45;&gt;Strings -->
<g id="edge42" class="edge" data-name="TokenURILogic-&gt;Strings">

<path fill="none" stroke="white" stroke-width="2" d="M535,-520.89C593.41,-520.89 673.2,-520.89 723.5,-520.89" style=""/>
<polygon fill="white" stroke="white" stroke-width="2" points="723.77,-524.39 733.77,-520.89 723.77,-517.39 723.77,-524.39" style=""/>
</g>
<!-- Base64 -->
<g id="node44" class="node" pointer-events="visible" data-name="Base64">

<ellipse fill="none" stroke="#445773" stroke-width="3" cx="140.29" cy="-2167.89" rx="39.43" ry="18" style=""/>
<text text-anchor="middle" x="140.29" y="-2163.69" font-family="Times,serif" font-size="14.00" fill="#f0f0f0" style="">Base64</text>
</g>
<!-- NFTBase -->
<g id="node45" class="node" pointer-events="visible" data-name="NFTBase">

<ellipse fill="none" stroke="#445773" stroke-width="3" cx="140.29" cy="-2221.89" rx="48.1" ry="18" style=""/>
<text text-anchor="middle" x="140.29" y="-2217.69" font-family="Times,serif" font-size="14.00" fill="#f0f0f0" style="">NFTBase</text>
</g>
<!-- NFTBase&#45;&gt;NFTBase -->
<g id="edge43" class="edge" data-name="NFTBase-&gt;NFTBase">

<path fill="none" stroke="#1bc6a6" stroke-width="2" d="M99.01,-2231.29C64.73,-2243.39 78.49,-2257.89 140.29,-2257.89 195.57,-2257.89 212.41,-2246.29 190.81,-2235.18" style=""/>
<polygon fill="#1bc6a6" stroke="#1bc6a6" stroke-width="2" points="192.14,-2231.94 181.57,-2231.29 189.43,-2238.4 192.14,-2231.94" style=""/>
</g>
<!-- ERC721Enumerable -->
<g id="node46" class="node" pointer-events="visible" data-name="ERC721Enumerable">

<ellipse fill="none" stroke="#445773" stroke-width="3" cx="140.29" cy="-655.89" rx="90.91" ry="18" style=""/>
<text text-anchor="middle" x="140.29" y="-651.69" font-family="Times,serif" font-size="14.00" fill="#f0f0f0" style="">ERC721Enumerable</text>
</g>
<!-- ERC721Enumerable&#45;&gt;ERC721 -->
<g id="edge46" class="edge" data-name="ERC721Enumerable-&gt;ERC721">

<path fill="none" stroke="white" stroke-width="2" d="M224.37,-662.95C281.89,-667.84 356.71,-674.19 406.24,-678.4" style=""/>
<polygon fill="white" stroke="white" stroke-width="2" points="406.15,-681.91 416.41,-679.27 406.74,-674.93 406.15,-681.91" style=""/>
</g>
<!-- ERC721Enumerable&#45;&gt;ERC721Enumerable -->
<g id="edge44" class="edge" data-name="ERC721Enumerable-&gt;ERC721Enumerable">

<path fill="none" stroke="#1bc6a6" stroke-width="2" d="M87.08,-670.68C69.76,-681.31 87.49,-691.89 140.29,-691.89 179.88,-691.89 199.76,-685.94 199.91,-678.48" style=""/>
<polygon fill="#1bc6a6" stroke="#1bc6a6" stroke-width="2" points="202.55,-676.18 193.49,-670.68 197.15,-680.63 202.55,-676.18" style=""/>
</g>
<!-- IERC721Enumerable -->
<g id="node47" class="node" pointer-events="visible" data-name="IERC721Enumerable">

<ellipse fill="none" stroke="#445773" stroke-width="3" cx="460.08" cy="-628.89" rx="94.34" ry="18" style=""/>
<text text-anchor="middle" x="460.08" y="-624.69" font-family="Times,serif" font-size="14.00" fill="#f0f0f0" style="">IERC721Enumerable</text>
</g>
<!-- ERC721Enumerable&#45;&gt;IERC721Enumerable -->
<g id="edge45" class="edge" data-name="ERC721Enumerable-&gt;IERC721Enumerable">

<path fill="none" stroke="white" stroke-width="2" d="M224.37,-648.83C267.02,-645.21 319.2,-640.78 363.51,-637.01" style=""/>
<polygon fill="white" stroke="white" stroke-width="2" points="364.05,-640.48 373.72,-636.14 363.46,-633.5 364.05,-640.48" style=""/>
</g>
<!-- MultiState&#45;&gt;Events -->
<g id="edge48" class="edge" data-name="MultiState-&gt;Events">

<path fill="none" stroke="white" stroke-width="2" d="M502.91,-151.22C531.85,-159.05 570.88,-171 603.58,-185.89 620.65,-193.66 622.37,-200.46 639.58,-207.89 667.84,-220.09 701.31,-229.17 727.45,-235.16" style=""/>
<polygon fill="white" stroke="white" stroke-width="2" points="726.92,-238.63 737.44,-237.39 728.44,-231.8 726.92,-238.63" style=""/>
</g>
<!-- MultiState&#45;&gt;Errors -->
<g id="edge49" class="edge" data-name="MultiState-&gt;Errors">

<path fill="none" stroke="white" stroke-width="2" d="M508.88,-147.05C568.57,-154.75 669.85,-167.8 727.59,-175.25" style=""/>
<polygon fill="white" stroke="white" stroke-width="2" points="727.48,-178.76 737.85,-176.57 728.38,-171.82 727.48,-178.76" style=""/>
</g>
<!-- MultiState&#45;&gt;MultiState -->
<g id="edge47" class="edge" data-name="MultiState-&gt;MultiState">

<path fill="none" stroke="#1bc6a6" stroke-width="2" d="M417.13,-151.21C386.65,-163.11 400.97,-176.89 460.08,-176.89 511.8,-176.89 529.23,-166.34 512.36,-155.73" style=""/>
<polygon fill="#1bc6a6" stroke="#1bc6a6" stroke-width="2" points="513.55,-152.42 503.03,-151.21 510.5,-158.72 513.55,-152.42" style=""/>
</g>
<!-- BuidlHubStorage -->
<g id="node49" class="node" pointer-events="visible" data-name="BuidlHubStorage">

<ellipse fill="none" stroke="#445773" stroke-width="3" cx="140.29" cy="-2293.89" rx="78.76" ry="18" style=""/>
<text text-anchor="middle" x="140.29" y="-2289.69" font-family="Times,serif" font-size="14.00" fill="#f0f0f0" style="">BuidlHubStorage</text>
</g>
<!-- key -->
<g id="node50" class="node" pointer-events="visible" data-name="key">

<polygon fill="#edad56" stroke="transparent" stroke-width="3" points="205.29,-2417.89 75.29,-2417.89 75.29,-2329.89 205.29,-2329.89 205.29,-2417.89" style=""/>
<text text-anchor="start" x="124.93" y="-2399.29" font-family="Times,serif" font-size="14.00" style="">Internal Call</text>
<text text-anchor="start" x="121.04" y="-2379.29" font-family="Times,serif" font-size="14.00" style="">External Call</text>
<text text-anchor="start" x="98.49" y="-2359.29" font-family="Times,serif" font-size="14.00" style="">Defined Contract</text>
<text text-anchor="start" x="84.89" y="-2339.29" font-family="Times,serif" font-size="14.00" style="">Undefined Contract</text>
</g>
<!-- key2 -->
<g id="node51" class="node" pointer-events="visible" data-name="key2">

<polygon fill="#edad56" stroke="transparent" stroke-width="3" points="487.08,-2417.89 433.08,-2417.89 433.08,-2329.89 487.08,-2329.89 487.08,-2417.89" style=""/>
<text text-anchor="start" x="450.08" y="-2399.29" font-family="Times,serif" font-size="14.00" style="">   </text>
<text text-anchor="start" x="450.08" y="-2379.29" font-family="Times,serif" font-size="14.00" style="">   </text>
<polygon fill="#445773" stroke="transparent" points="448.08,-2353.89 448.08,-2373.89 473.08,-2373.89 473.08,-2353.89 448.08,-2353.89" style=""/>
<text text-anchor="start" x="450.08" y="-2359.29" font-family="Times,serif" font-size="14.00" style="">   </text>
<polygon fill="none" stroke="#e8726d" points="450.08,-2335.89 450.08,-2351.89 471.08,-2351.89 471.08,-2335.89 450.08,-2335.89" style=""/>
</g>
<!-- key&#45;&gt;key2 -->
<g id="edge50" class="edge" data-name="key-&gt;key2">

<path fill="none" stroke="#1bc6a6" stroke-width="2" d="M198.29,-2403.89C305.41,-2403.89 334.7,-2403.89 436.95,-2403.89" style=""/>
<polygon fill="#1bc6a6" stroke="#1bc6a6" stroke-width="2" points="437.08,-2407.39 447.08,-2403.89 437.08,-2400.39 437.08,-2407.39" style=""/>
</g>
<!-- key&#45;&gt;key2 -->
<g id="edge51" class="edge" data-name="key-&gt;key2">

<path fill="none" stroke="white" stroke-width="2" d="M198.29,-2383.89C305.41,-2383.89 334.7,-2383.89 436.95,-2383.89" style=""/>
<polygon fill="white" stroke="white" stroke-width="2" points="437.08,-2387.39 447.08,-2383.89 437.08,-2380.39 437.08,-2387.39" style=""/>
</g>
</g>
</svg>