<?xml version="1.0" standalone="no"?>
<svg xmlns="http://www.w3.org/2000/svg" xmlns:xlink="http://www.w3.org/1999/xlink" width="3711pt" height="476pt" viewBox="0.00 0.00 3710.81 476.00">
<g id="graph0" class="graph" transform="translate(-3768.247934227129,1018.7497422967272) scale(2.1218048510575973)" data-name="G">

<polygon fill="white" stroke="transparent" points="-4,4 -4,-472 3706.81,-472 3706.81,4 -4,4" style=""/>
<!-- BuidlHub -->
<g id="node1" class="node" pointer-events="visible" data-name="BuidlHub">

<ellipse fill="none" stroke="black" cx="231.35" cy="-450" rx="49.26" ry="18" style=""/>
<text text-anchor="middle" x="231.35" y="-445.8" font-family="Times,serif" font-size="14.00" style="">BuidlHub</text>
</g>
<!-- IBuidlHub -->
<g id="node2" class="node" pointer-events="visible" data-name="IBuidlHub">

<ellipse fill="none" stroke="rgb(229,229,229)" cx="52.35" cy="-306" rx="52.2" ry="18" style=""/>
<text text-anchor="middle" x="52.35" y="-301.8" font-family="Times,serif" font-size="14.00" style="">IBuidlHub</text>
</g>
<!-- BuidlHub&#45;&gt;IBuidlHub -->
<g id="edge1" class="edge" data-name="BuidlHub-&gt;IBuidlHub">

<path fill="none" stroke="rgb(229,229,229)" d="M183.53,-445.62C147.56,-440.49 99.76,-427.71 71.35,-396 56.4,-379.32 52.18,-353.83 51.39,-334.39" style=""/>
<polygon fill="rgb(229,229,229)" stroke="rgb(229,229,229)" points="54.89,-334.27 51.26,-324.31 47.89,-334.36 54.89,-334.27" style=""/>
</g>
<!-- BuidlHubStorage -->
<g id="node3" class="node" pointer-events="visible" data-name="BuidlHubStorage">

<ellipse fill="none" stroke="rgb(229,229,229)" cx="159.35" cy="-378" rx="78.76" ry="18" style=""/>
<text text-anchor="middle" x="159.35" y="-373.8" font-family="Times,serif" font-size="14.00" style="">BuidlHubStorage</text>
</g>
<!-- BuidlHub&#45;&gt;BuidlHubStorage -->
<g id="edge2" class="edge" data-name="BuidlHub-&gt;BuidlHubStorage">

<path fill="none" stroke="rgb(229,229,229)" d="M214.65,-432.76C205.51,-423.88 194.02,-412.71 183.88,-402.85" style=""/>
<polygon fill="rgb(229,229,229)" stroke="rgb(229,229,229)" points="186.07,-400.09 176.46,-395.63 181.19,-405.11 186.07,-400.09" style=""/>
</g>
<!-- NFTBase -->
<g id="node4" class="node" pointer-events="visible" data-name="NFTBase">

<ellipse fill="none" stroke="black" cx="304.35" cy="-378" rx="48.1" ry="18" style=""/>
<text text-anchor="middle" x="304.35" y="-373.8" font-family="Times,serif" font-size="14.00" style="">NFTBase</text>
</g>
<!-- BuidlHub&#45;&gt;NFTBase -->
<g id="edge3" class="edge" data-name="BuidlHub-&gt;NFTBase">

<path fill="none" stroke="black" d="M248.28,-432.76C257.84,-423.6 269.94,-412 280.45,-401.92" style=""/>
<polygon fill="black" stroke="black" points="282.96,-404.35 287.76,-394.91 278.12,-399.3 282.96,-404.35" style=""/>
</g>
<!-- MultiState -->
<g id="node5" class="node" pointer-events="visible" data-name="MultiState">

<ellipse fill="none" stroke="rgb(229,229,229)" cx="422.35" cy="-378" rx="51.62" ry="18" style=""/>
<text text-anchor="middle" x="422.35" y="-373.8" font-family="Times,serif" font-size="14.00" style="">MultiState</text>
</g>
<!-- BuidlHub&#45;&gt;MultiState -->
<g id="edge4" class="edge" data-name="BuidlHub-&gt;MultiState">

<path fill="none" stroke="rgb(229,229,229)" d="M265.05,-436.65C296.54,-425.11 343.72,-407.81 378.2,-395.18" style=""/>
<polygon fill="rgb(229,229,229)" stroke="rgb(229,229,229)" points="379.83,-398.31 388.01,-391.58 377.42,-391.74 379.83,-398.31" style=""/>
</g>
<!-- IERC721 -->
<g id="node9" class="node" pointer-events="visible" data-name="IERC721">

<ellipse fill="none" stroke="black" cx="130.35" cy="-90" rx="47.54" ry="18" style=""/>
<text text-anchor="middle" x="130.35" y="-85.8" font-family="Times,serif" font-size="14.00" style="">IERC721</text>
</g>
<!-- IBuidlHub&#45;&gt;IERC721 -->
<g id="edge12" class="edge" data-name="IBuidlHub-&gt;IERC721">

<path fill="none" stroke="rgb(229,229,229)" d="M54.79,-287.96C57.66,-269.81 63.11,-240.4 71.35,-216 83.34,-180.47 102.68,-141.75 115.92,-116.96" style=""/>
<polygon fill="rgb(229,229,229)" stroke="rgb(229,229,229)" points="119.16,-118.33 120.84,-107.87 113,-115 119.16,-118.33" style=""/>
</g>
<!-- Context -->
<g id="node7" class="node" pointer-events="visible" data-name="Context">

<ellipse fill="none" stroke="black" cx="422.35" cy="-162" rx="41.73" ry="18" style=""/>
<text text-anchor="middle" x="422.35" y="-157.8" font-family="Times,serif" font-size="14.00" style="">Context</text>
</g>
<!-- NFTBase&#45;&gt;Context -->
<g id="edge34" class="edge" data-name="NFTBase-&gt;Context">

<path fill="none" stroke="rgb(229,229,229)" d="M341.82,-366.52C363.37,-358.49 388.96,-345.1 403.35,-324 430.67,-283.92 429.82,-224.83 426.34,-190.5" style=""/>
<polygon fill="rgb(229,229,229)" stroke="rgb(229,229,229)" points="429.78,-189.81 425.15,-180.28 422.83,-190.61 429.78,-189.81" style=""/>
</g>
<!-- ERC721Enumerable -->
<g id="node48" class="node" pointer-events="visible" data-name="ERC721Enumerable">

<ellipse fill="none" stroke="black" cx="303.35" cy="-306" rx="90.91" ry="18" style=""/>
<text text-anchor="middle" x="303.35" y="-301.8" font-family="Times,serif" font-size="14.00" style="">ERC721Enumerable</text>
</g>
<!-- NFTBase&#45;&gt;ERC721Enumerable -->
<g id="edge35" class="edge" data-name="NFTBase-&gt;ERC721Enumerable">

<path fill="none" stroke="black" d="M304.1,-359.7C303.99,-351.98 303.86,-342.71 303.73,-334.11" style=""/>
<polygon fill="black" stroke="black" points="307.23,-334.05 303.59,-324.1 300.23,-334.15 307.23,-334.05" style=""/>
</g>
<!-- ERC721 -->
<g id="node6" class="node" pointer-events="visible" data-name="ERC721">

<ellipse fill="none" stroke="black" cx="330.35" cy="-234" rx="44.11" ry="18" style=""/>
<text text-anchor="middle" x="330.35" y="-229.8" font-family="Times,serif" font-size="14.00" style="">ERC721</text>
</g>
<!-- ERC721&#45;&gt;Context -->
<g id="edge5" class="edge" data-name="ERC721-&gt;Context">

<path fill="none" stroke="black" d="M350.31,-217.81C363.3,-207.93 380.42,-194.9 394.71,-184.03" style=""/>
<polygon fill="black" stroke="black" points="396.9,-186.76 402.74,-177.92 392.66,-181.19 396.9,-186.76" style=""/>
</g>
<!-- ERC165 -->
<g id="node8" class="node" pointer-events="visible" data-name="ERC165">

<ellipse fill="none" stroke="black" cx="297.35" cy="-90" rx="44.11" ry="18" style=""/>
<text text-anchor="middle" x="297.35" y="-85.8" font-family="Times,serif" font-size="14.00" style="">ERC165</text>
</g>
<!-- ERC721&#45;&gt;ERC165 -->
<g id="edge6" class="edge" data-name="ERC721-&gt;ERC165">

<path fill="none" stroke="black" d="M334.18,-215.83C337.51,-197.58 340.75,-168.09 333.35,-144 330.21,-133.79 324.36,-123.79 318.28,-115.27" style=""/>
<polygon fill="black" stroke="black" points="321.05,-113.13 312.21,-107.29 315.48,-117.37 321.05,-113.13" style=""/>
</g>
<!-- ERC721&#45;&gt;IERC721 -->
<g id="edge7" class="edge" data-name="ERC721-&gt;IERC721">

<path fill="none" stroke="black" d="M297.04,-222.11C290.53,-220.04 283.73,-217.92 277.35,-216 220.76,-198.97 189.78,-223.1 149.35,-180 133.93,-163.57 129.8,-137.83 129.15,-118.25" style=""/>
<polygon fill="black" stroke="black" points="132.65,-118.09 129.11,-108.1 125.65,-118.12 132.65,-118.09" style=""/>
</g>
<!-- IERC721Metadata -->
<g id="node10" class="node" pointer-events="visible" data-name="IERC721Metadata">

<ellipse fill="none" stroke="black" cx="241.35" cy="-162" rx="83.39" ry="18" style=""/>
<text text-anchor="middle" x="241.35" y="-157.8" font-family="Times,serif" font-size="14.00" style="">IERC721Metadata</text>
</g>
<!-- ERC721&#45;&gt;IERC721Metadata -->
<g id="edge8" class="edge" data-name="ERC721-&gt;IERC721Metadata">

<path fill="none" stroke="black" d="M310.6,-217.46C298.72,-208.13 283.4,-196.07 270.19,-185.68" style=""/>
<polygon fill="black" stroke="black" points="272.31,-182.9 262.28,-179.47 267.98,-188.4 272.31,-182.9" style=""/>
</g>
<!-- IERC165 -->
<g id="node11" class="node" pointer-events="visible" data-name="IERC165">

<ellipse fill="none" stroke="black" cx="186.35" cy="-18" rx="47.54" ry="18" style=""/>
<text text-anchor="middle" x="186.35" y="-13.8" font-family="Times,serif" font-size="14.00" style="">IERC165</text>
</g>
<!-- ERC165&#45;&gt;IERC165 -->
<g id="edge11" class="edge" data-name="ERC165-&gt;IERC165">

<path fill="none" stroke="black" d="M274.35,-74.5C258.23,-64.33 236.48,-50.61 218.63,-39.36" style=""/>
<polygon fill="black" stroke="black" points="220.02,-36.1 209.7,-33.73 216.29,-42.02 220.02,-36.1" style=""/>
</g>
<!-- IERC721&#45;&gt;IERC165 -->
<g id="edge9" class="edge" data-name="IERC721-&gt;IERC165">

<path fill="none" stroke="black" d="M143.62,-72.41C150.52,-63.78 159.1,-53.06 166.75,-43.5" style=""/>
<polygon fill="black" stroke="black" points="169.66,-45.47 173.17,-35.47 164.19,-41.09 169.66,-45.47" style=""/>
</g>
<!-- IERC721Metadata&#45;&gt;IERC721 -->
<g id="edge10" class="edge" data-name="IERC721Metadata-&gt;IERC721">

<path fill="none" stroke="black" d="M215.6,-144.76C199.68,-134.72 179.11,-121.75 162.17,-111.07" style=""/>
<polygon fill="black" stroke="black" points="164.01,-108.09 153.68,-105.72 160.28,-114.01 164.01,-108.09" style=""/>
</g>
<!-- IERC721Receiver -->
<g id="node12" class="node" pointer-events="visible" data-name="IERC721Receiver">

<ellipse fill="none" stroke="rgb(229,229,229)" cx="380.35" cy="-450" rx="81.66" ry="18" style=""/>
<text text-anchor="middle" x="380.35" y="-445.8" font-family="Times,serif" font-size="14.00" style="">IERC721Receiver</text>
</g>
<!-- Address -->
<g id="node13" class="node" pointer-events="visible" data-name="Address">

<ellipse fill="none" stroke="rgb(229,229,229)" cx="523.35" cy="-450" rx="42.87" ry="18" style=""/>
<text text-anchor="middle" x="523.35" y="-445.8" font-family="Times,serif" font-size="14.00" style="">Address</text>
</g>
<!-- Strings -->
<g id="node14" class="node" pointer-events="visible" data-name="Strings">

<ellipse fill="none" stroke="rgb(229,229,229)" cx="622.35" cy="-450" rx="38.31" ry="18" style=""/>
<text text-anchor="middle" x="622.35" y="-445.8" font-family="Times,serif" font-size="14.00" style="">Strings</text>
</g>
<!-- DataTypes -->
<g id="node15" class="node" pointer-events="visible" data-name="DataTypes">

<ellipse fill="none" stroke="rgb(229,229,229)" cx="731.35" cy="-450" rx="52.73" ry="18" style=""/>
<text text-anchor="middle" x="731.35" y="-445.8" font-family="Times,serif" font-size="14.00" style="">DataTypes</text>
</g>
<!-- Events -->
<g id="node16" class="node" pointer-events="visible" data-name="Events">

<ellipse fill="none" stroke="rgb(229,229,229)" cx="839.35" cy="-450" rx="37.14" ry="18" style=""/>
<text text-anchor="middle" x="839.35" y="-445.8" font-family="Times,serif" font-size="14.00" style="">Events</text>
</g>
<!-- Constants -->
<g id="node17" class="node" pointer-events="visible" data-name="Constants">

<ellipse fill="none" stroke="rgb(229,229,229)" cx="943.35" cy="-450" rx="49.26" ry="18" style=""/>
<text text-anchor="middle" x="943.35" y="-445.8" font-family="Times,serif" font-size="14.00" style="">Constants</text>
</g>
<!-- Errors -->
<g id="node18" class="node" pointer-events="visible" data-name="Errors">

<ellipse fill="none" stroke="rgb(229,229,229)" cx="1045.35" cy="-450" rx="35.34" ry="18" style=""/>
<text text-anchor="middle" x="1045.35" y="-445.8" font-family="Times,serif" font-size="14.00" style="">Errors</text>
</g>
<!-- BuidlingLogic -->
<g id="node19" class="node" pointer-events="visible" data-name="BuidlingLogic">

<ellipse fill="none" stroke="rgb(229,229,229)" cx="1166.35" cy="-450" rx="67.23" ry="18" style=""/>
<text text-anchor="middle" x="1166.35" y="-445.8" font-family="Times,serif" font-size="14.00" style="">BuidlingLogic</text>
</g>
<!-- IBackModule -->
<g id="node20" class="node" pointer-events="visible" data-name="IBackModule">

<ellipse fill="none" stroke="rgb(229,229,229)" cx="1316.35" cy="-450" rx="64.27" ry="18" style=""/>
<text text-anchor="middle" x="1316.35" y="-445.8" font-family="Times,serif" font-size="14.00" style="">IBackModule</text>
</g>
<!-- IInvestModule -->
<g id="node21" class="node" pointer-events="visible" data-name="IInvestModule">

<ellipse fill="none" stroke="rgb(229,229,229)" cx="1466.35" cy="-450" rx="67.79" ry="18" style=""/>
<text text-anchor="middle" x="1466.35" y="-445.8" font-family="Times,serif" font-size="14.00" style="">IInvestModule</text>
</g>
<!-- FundingLogic -->
<g id="node22" class="node" pointer-events="visible" data-name="FundingLogic">

<ellipse fill="none" stroke="rgb(229,229,229)" cx="1618.35" cy="-450" rx="65.52" ry="18" style=""/>
<text text-anchor="middle" x="1618.35" y="-445.8" font-family="Times,serif" font-size="14.00" style="">FundingLogic</text>
</g>
<!-- Clones -->
<g id="node23" class="node" pointer-events="visible" data-name="Clones">

<ellipse fill="none" stroke="rgb(229,229,229)" cx="1740.35" cy="-450" rx="37.72" ry="18" style=""/>
<text text-anchor="middle" x="1740.35" y="-445.8" font-family="Times,serif" font-size="14.00" style="">Clones</text>
</g>
<!-- IERC20 -->
<g id="node24" class="node" pointer-events="visible" data-name="IERC20">

<ellipse fill="none" stroke="rgb(229,229,229)" cx="1839.35" cy="-450" rx="42.88" ry="18" style=""/>
<text text-anchor="middle" x="1839.35" y="-445.8" font-family="Times,serif" font-size="14.00" style="">IERC20</text>
</g>
<!-- SafeERC20 -->
<g id="node25" class="node" pointer-events="visible" data-name="SafeERC20">

<ellipse fill="none" stroke="rgb(229,229,229)" cx="1956.35" cy="-450" rx="56.77" ry="18" style=""/>
<text text-anchor="middle" x="1956.35" y="-445.8" font-family="Times,serif" font-size="14.00" style="">SafeERC20</text>
</g>
<!-- IBackNFT -->
<g id="node26" class="node" pointer-events="visible" data-name="IBackNFT">

<ellipse fill="none" stroke="rgb(229,229,229)" cx="1996.35" cy="-378" rx="52.18" ry="18" style=""/>
<text text-anchor="middle" x="1996.35" y="-373.8" font-family="Times,serif" font-size="14.00" style="">IBackNFT</text>
</g>
<!-- BackNFT -->
<g id="node27" class="node" pointer-events="visible" data-name="BackNFT">

<ellipse fill="none" stroke="rgb(229,229,229)" cx="2080.35" cy="-450" rx="49.24" ry="18" style=""/>
<text text-anchor="middle" x="2080.35" y="-445.8" font-family="Times,serif" font-size="14.00" style="">BackNFT</text>
</g>
<!-- BackNFT&#45;&gt;IBackNFT -->
<g id="edge14" class="edge" data-name="BackNFT-&gt;IBackNFT">

<path fill="none" stroke="rgb(229,229,229)" d="M2061.29,-433.12C2050.01,-423.72 2035.55,-411.67 2023.14,-401.33" style=""/>
<polygon fill="rgb(229,229,229)" stroke="rgb(229,229,229)" points="2025.26,-398.53 2015.33,-394.82 2020.77,-403.91 2025.26,-398.53" style=""/>
</g>
<!-- NFTBaseUpgradeable -->
<g id="node28" class="node" pointer-events="visible" data-name="NFTBaseUpgradeable">

<ellipse fill="none" stroke="rgb(229,229,229)" cx="2164.35" cy="-378" rx="97.27" ry="18" style=""/>
<text text-anchor="middle" x="2164.35" y="-373.8" font-family="Times,serif" font-size="14.00" style="">NFTBaseUpgradeable</text>
</g>
<!-- BackNFT&#45;&gt;NFTBaseUpgradeable -->
<g id="edge13" class="edge" data-name="BackNFT-&gt;NFTBaseUpgradeable">

<path fill="none" stroke="rgb(229,229,229)" d="M2099.41,-433.12C2110.37,-423.98 2124.33,-412.35 2136.5,-402.2" style=""/>
<polygon fill="rgb(229,229,229)" stroke="rgb(229,229,229)" points="2138.75,-404.89 2144.19,-395.8 2134.27,-399.51 2138.75,-404.89" style=""/>
</g>
<!-- ContextUpgradeable -->
<g id="node29" class="node" pointer-events="visible" data-name="ContextUpgradeable">

<ellipse fill="none" stroke="rgb(229,229,229)" cx="2061.35" cy="-162" rx="90.89" ry="18" style=""/>
<text text-anchor="middle" x="2061.35" y="-157.8" font-family="Times,serif" font-size="14.00" style="">ContextUpgradeable</text>
</g>
<!-- NFTBaseUpgradeable&#45;&gt;ContextUpgradeable -->
<g id="edge15" class="edge" data-name="NFTBaseUpgradeable-&gt;ContextUpgradeable">

<path fill="none" stroke="rgb(229,229,229)" d="M2146.36,-360.22C2136.69,-350.42 2125.18,-337.37 2117.35,-324 2091.83,-280.46 2075.46,-223.48 2067.37,-190.29" style=""/>
<polygon fill="rgb(229,229,229)" stroke="rgb(229,229,229)" points="2070.74,-189.32 2065.04,-180.4 2063.93,-190.93 2070.74,-189.32" style=""/>
</g>
<!-- ERC721EnumerableUpgradeable -->
<g id="node30" class="node" pointer-events="visible" data-name="ERC721EnumerableUpgradeable">

<ellipse fill="none" stroke="rgb(229,229,229)" cx="2266.35" cy="-306" rx="140.08" ry="18" style=""/>
<text text-anchor="middle" x="2266.35" y="-301.8" font-family="Times,serif" font-size="14.00" style="">ERC721EnumerableUpgradeable</text>
</g>
<!-- NFTBaseUpgradeable&#45;&gt;ERC721EnumerableUpgradeable -->
<g id="edge16" class="edge" data-name="NFTBaseUpgradeable-&gt;ERC721EnumerableUpgradeable">

<path fill="none" stroke="rgb(229,229,229)" d="M2188.52,-360.41C2201.91,-351.22 2218.76,-339.66 2233.35,-329.64" style=""/>
<polygon fill="rgb(229,229,229)" stroke="rgb(229,229,229)" points="2235.37,-332.5 2241.64,-323.96 2231.41,-326.73 2235.37,-332.5" style=""/>
</g>
<!-- Initializable -->
<g id="node31" class="node" pointer-events="visible" data-name="Initializable">

<ellipse fill="none" stroke="rgb(229,229,229)" cx="2199.35" cy="-90" rx="57.3" ry="18" style=""/>
<text text-anchor="middle" x="2199.35" y="-85.8" font-family="Times,serif" font-size="14.00" style="">Initializable</text>
</g>
<!-- ContextUpgradeable&#45;&gt;Initializable -->
<g id="edge27" class="edge" data-name="ContextUpgradeable-&gt;Initializable">

<path fill="none" stroke="rgb(229,229,229)" d="M2093.01,-144.94C2113.25,-134.67 2139.62,-121.29 2161.04,-110.43" style=""/>
<polygon fill="rgb(229,229,229)" stroke="rgb(229,229,229)" points="2162.85,-113.44 2170.19,-105.79 2159.69,-107.19 2162.85,-113.44" style=""/>
</g>
<!-- ERC721EnumerableUpgradeable&#45;&gt;Initializable -->
<g id="edge17" class="edge" data-name="ERC721EnumerableUpgradeable-&gt;Initializable">

<path fill="none" stroke="rgb(229,229,229)" d="M2245.81,-287.97C2235.81,-278.47 2224.62,-265.79 2218.35,-252 2198.57,-208.49 2196.67,-151.87 2197.63,-118.67" style=""/>
<polygon fill="rgb(229,229,229)" stroke="rgb(229,229,229)" points="2201.14,-118.49 2198.05,-108.36 2194.15,-118.21 2201.14,-118.49" style=""/>
</g>
<!-- ERC721Upgradeable -->
<g id="node32" class="node" pointer-events="visible" data-name="ERC721Upgradeable">

<ellipse fill="none" stroke="rgb(229,229,229)" cx="2321.35" cy="-234" rx="93.77" ry="18" style=""/>
<text text-anchor="middle" x="2321.35" y="-229.8" font-family="Times,serif" font-size="14.00" style="">ERC721Upgradeable</text>
</g>
<!-- ERC721EnumerableUpgradeable&#45;&gt;ERC721Upgradeable -->
<g id="edge18" class="edge" data-name="ERC721EnumerableUpgradeable-&gt;ERC721Upgradeable">

<path fill="none" stroke="rgb(229,229,229)" d="M2279.66,-288.05C2286.18,-279.75 2294.17,-269.58 2301.41,-260.38" style=""/>
<polygon fill="rgb(229,229,229)" stroke="rgb(229,229,229)" points="2304.35,-262.3 2307.77,-252.28 2298.84,-257.98 2304.35,-262.3" style=""/>
</g>
<!-- IERC721EnumerableUpgradeable -->
<g id="node33" class="node" pointer-events="visible" data-name="IERC721EnumerableUpgradeable">

<ellipse fill="none" stroke="rgb(229,229,229)" cx="2679.35" cy="-234" rx="143.51" ry="18" style=""/>
<text text-anchor="middle" x="2679.35" y="-229.8" font-family="Times,serif" font-size="14.00" style="">IERC721EnumerableUpgradeable</text>
</g>
<!-- ERC721EnumerableUpgradeable&#45;&gt;IERC721EnumerableUpgradeable -->
<g id="edge19" class="edge" data-name="ERC721EnumerableUpgradeable-&gt;IERC721EnumerableUpgradeable">

<path fill="none" stroke="rgb(229,229,229)" d="M2347.45,-291.25C2416.55,-279.54 2515.81,-262.72 2587.76,-250.52" style=""/>
<polygon fill="rgb(229,229,229)" stroke="rgb(229,229,229)" points="2588.45,-253.96 2597.72,-248.83 2587.28,-247.05 2588.45,-253.96" style=""/>
</g>
<!-- ERC721Upgradeable&#45;&gt;ContextUpgradeable -->
<g id="edge21" class="edge" data-name="ERC721Upgradeable-&gt;ContextUpgradeable">

<path fill="none" stroke="rgb(229,229,229)" d="M2269.36,-219C2227.06,-207.62 2167.28,-191.52 2122.65,-179.51" style=""/>
<polygon fill="rgb(229,229,229)" stroke="rgb(229,229,229)" points="2123.37,-176.07 2112.8,-176.85 2121.55,-182.83 2123.37,-176.07" style=""/>
</g>
<!-- ERC721Upgradeable&#45;&gt;Initializable -->
<g id="edge20" class="edge" data-name="ERC721Upgradeable-&gt;Initializable">

<path fill="none" stroke="rgb(229,229,229)" d="M2286.36,-217.13C2269.74,-208.17 2250.66,-195.62 2237.35,-180 2221.99,-161.98 2212.03,-136.83 2206.17,-117.87" style=""/>
<polygon fill="rgb(229,229,229)" stroke="rgb(229,229,229)" points="2209.47,-116.68 2203.33,-108.05 2202.75,-118.63 2209.47,-116.68" style=""/>
</g>
<!-- ERC165Upgradeable -->
<g id="node34" class="node" pointer-events="visible" data-name="ERC165Upgradeable">

<ellipse fill="none" stroke="rgb(229,229,229)" cx="2340.35" cy="-162" rx="93.77" ry="18" style=""/>
<text text-anchor="middle" x="2340.35" y="-157.8" font-family="Times,serif" font-size="14.00" style="">ERC165Upgradeable</text>
</g>
<!-- ERC721Upgradeable&#45;&gt;ERC165Upgradeable -->
<g id="edge22" class="edge" data-name="ERC721Upgradeable-&gt;ERC165Upgradeable">

<path fill="none" stroke="rgb(229,229,229)" d="M2326.04,-215.7C2328.16,-207.9 2330.71,-198.51 2333.07,-189.83" style=""/>
<polygon fill="rgb(229,229,229)" stroke="rgb(229,229,229)" points="2336.46,-190.67 2335.7,-180.1 2329.71,-188.84 2336.46,-190.67" style=""/>
</g>
<!-- IERC721Upgradeable -->
<g id="node35" class="node" pointer-events="visible" data-name="IERC721Upgradeable">

<ellipse fill="none" stroke="rgb(229,229,229)" cx="2664.35" cy="-90" rx="96.7" ry="18" style=""/>
<text text-anchor="middle" x="2664.35" y="-85.8" font-family="Times,serif" font-size="14.00" style="">IERC721Upgradeable</text>
</g>
<!-- ERC721Upgradeable&#45;&gt;IERC721Upgradeable -->
<g id="edge23" class="edge" data-name="ERC721Upgradeable-&gt;IERC721Upgradeable">

<path fill="none" stroke="rgb(229,229,229)" d="M2403.02,-225.08C2518.24,-213.5 2715.78,-192.04 2726.35,-180 2744.79,-158.98 2720.98,-132.4 2697.73,-113.79" style=""/>
<polygon fill="rgb(229,229,229)" stroke="rgb(229,229,229)" points="2699.66,-110.86 2689.59,-107.55 2695.4,-116.42 2699.66,-110.86" style=""/>
</g>
<!-- IERC721MetadataUpgradeable -->
<g id="node36" class="node" pointer-events="visible" data-name="IERC721MetadataUpgradeable">

<ellipse fill="none" stroke="rgb(229,229,229)" cx="2584.35" cy="-162" rx="132.55" ry="18" style=""/>
<text text-anchor="middle" x="2584.35" y="-157.8" font-family="Times,serif" font-size="14.00" style="">IERC721MetadataUpgradeable</text>
</g>
<!-- ERC721Upgradeable&#45;&gt;IERC721MetadataUpgradeable -->
<g id="edge24" class="edge" data-name="ERC721Upgradeable-&gt;IERC721MetadataUpgradeable">

<path fill="none" stroke="rgb(229,229,229)" d="M2373.94,-219C2415.05,-208.06 2472.49,-192.77 2516.97,-180.93" style=""/>
<polygon fill="rgb(229,229,229)" stroke="rgb(229,229,229)" points="2518.06,-184.26 2526.83,-178.31 2516.26,-177.5 2518.06,-184.26" style=""/>
</g>
<!-- IERC721EnumerableUpgradeable&#45;&gt;IERC721Upgradeable -->
<g id="edge30" class="edge" data-name="IERC721EnumerableUpgradeable-&gt;IERC721Upgradeable">

<path fill="none" stroke="rgb(229,229,229)" d="M2719.27,-216.7C2734.69,-208.2 2750.68,-196.15 2759.35,-180 2766.92,-165.9 2767.45,-157.8 2759.35,-144 2750.72,-129.3 2736.36,-118.38 2721.39,-110.39" style=""/>
<polygon fill="rgb(229,229,229)" stroke="rgb(229,229,229)" points="2722.55,-107.07 2712.03,-105.8 2719.47,-113.35 2722.55,-107.07" style=""/>
</g>
<!-- ERC165Upgradeable&#45;&gt;Initializable -->
<g id="edge28" class="edge" data-name="ERC165Upgradeable-&gt;Initializable">

<path fill="none" stroke="rgb(229,229,229)" d="M2308,-144.94C2287.08,-134.56 2259.76,-120.99 2237.74,-110.06" style=""/>
<polygon fill="rgb(229,229,229)" stroke="rgb(229,229,229)" points="2239.18,-106.87 2228.67,-105.56 2236.07,-113.14 2239.18,-106.87" style=""/>
</g>
<!-- IERC165Upgradeable -->
<g id="node37" class="node" pointer-events="visible" data-name="IERC165Upgradeable">

<ellipse fill="none" stroke="rgb(229,229,229)" cx="2521.35" cy="-18" rx="96.7" ry="18" style=""/>
<text text-anchor="middle" x="2521.35" y="-13.8" font-family="Times,serif" font-size="14.00" style="">IERC165Upgradeable</text>
</g>
<!-- ERC165Upgradeable&#45;&gt;IERC165Upgradeable -->
<g id="edge29" class="edge" data-name="ERC165Upgradeable-&gt;IERC165Upgradeable">

<path fill="none" stroke="rgb(229,229,229)" d="M2361.46,-144.43C2393.67,-119.17 2455.16,-70.93 2491.78,-42.19" style=""/>
<polygon fill="rgb(229,229,229)" stroke="rgb(229,229,229)" points="2494.38,-44.61 2500.08,-35.68 2490.06,-39.1 2494.38,-44.61" style=""/>
</g>
<!-- IERC721Upgradeable&#45;&gt;IERC165Upgradeable -->
<g id="edge25" class="edge" data-name="IERC721Upgradeable-&gt;IERC165Upgradeable">

<path fill="none" stroke="rgb(229,229,229)" d="M2631.54,-72.94C2611.19,-62.98 2584.87,-50.09 2563.05,-39.41" style=""/>
<polygon fill="rgb(229,229,229)" stroke="rgb(229,229,229)" points="2564.52,-36.24 2554,-34.98 2561.44,-42.52 2564.52,-36.24" style=""/>
</g>
<!-- IERC721MetadataUpgradeable&#45;&gt;IERC721Upgradeable -->
<g id="edge26" class="edge" data-name="IERC721MetadataUpgradeable-&gt;IERC721Upgradeable">

<path fill="none" stroke="rgb(229,229,229)" d="M2603.71,-144.05C2613.83,-135.2 2626.38,-124.22 2637.43,-114.55" style=""/>
<polygon fill="rgb(229,229,229)" stroke="rgb(229,229,229)" points="2639.94,-117.01 2645.16,-107.79 2635.33,-111.74 2639.94,-117.01" style=""/>
</g>
<!-- IERC721ReceiverUpgradeable -->
<g id="node38" class="node" pointer-events="visible" data-name="IERC721ReceiverUpgradeable">

<ellipse fill="none" stroke="rgb(229,229,229)" cx="2470.35" cy="-450" rx="131.33" ry="18" style=""/>
<text text-anchor="middle" x="2470.35" y="-445.8" font-family="Times,serif" font-size="14.00" style="">IERC721ReceiverUpgradeable</text>
</g>
<!-- AddressUpgradeable -->
<g id="node39" class="node" pointer-events="visible" data-name="AddressUpgradeable">

<ellipse fill="none" stroke="rgb(229,229,229)" cx="2711.35" cy="-450" rx="92.03" ry="18" style=""/>
<text text-anchor="middle" x="2711.35" y="-445.8" font-family="Times,serif" font-size="14.00" style="">AddressUpgradeable</text>
</g>
<!-- StringsUpgradeable -->
<g id="node40" class="node" pointer-events="visible" data-name="StringsUpgradeable">

<ellipse fill="none" stroke="rgb(229,229,229)" cx="2909.35" cy="-450" rx="87.97" ry="18" style=""/>
<text text-anchor="middle" x="2909.35" y="-445.8" font-family="Times,serif" font-size="14.00" style="">StringsUpgradeable</text>
</g>
<!-- IInvestNFT -->
<g id="node41" class="node" pointer-events="visible" data-name="IInvestNFT">

<ellipse fill="none" stroke="rgb(229,229,229)" cx="2335.35" cy="-378" rx="56.19" ry="18" style=""/>
<text text-anchor="middle" x="2335.35" y="-373.8" font-family="Times,serif" font-size="14.00" style="">IInvestNFT</text>
</g>
<!-- InvestNFT -->
<g id="node42" class="node" pointer-events="visible" data-name="InvestNFT">

<ellipse fill="none" stroke="rgb(229,229,229)" cx="2268.35" cy="-450" rx="52.76" ry="18" style=""/>
<text text-anchor="middle" x="2268.35" y="-445.8" font-family="Times,serif" font-size="14.00" style="">InvestNFT</text>
</g>
<!-- InvestNFT&#45;&gt;NFTBaseUpgradeable -->
<g id="edge31" class="edge" data-name="InvestNFT-&gt;NFTBaseUpgradeable">

<path fill="none" stroke="rgb(229,229,229)" d="M2245.52,-433.64C2231.4,-424.13 2213.02,-411.76 2197.33,-401.2" style=""/>
<polygon fill="rgb(229,229,229)" stroke="rgb(229,229,229)" points="2199.18,-398.23 2188.93,-395.55 2195.27,-404.03 2199.18,-398.23" style=""/>
</g>
<!-- InvestNFT&#45;&gt;IInvestNFT -->
<g id="edge32" class="edge" data-name="InvestNFT-&gt;IInvestNFT">

<path fill="none" stroke="rgb(229,229,229)" d="M2283.89,-432.76C2292.31,-423.97 2302.87,-412.93 2312.24,-403.14" style=""/>
<polygon fill="rgb(229,229,229)" stroke="rgb(229,229,229)" points="2315.04,-405.28 2319.43,-395.63 2309.98,-400.44 2315.04,-405.28" style=""/>
</g>
<!-- IYieldTrustVault -->
<g id="node43" class="node" pointer-events="visible" data-name="IYieldTrustVault">

<ellipse fill="none" stroke="rgb(229,229,229)" cx="3092.35" cy="-450" rx="77.59" ry="18" style=""/>
<text text-anchor="middle" x="3092.35" y="-445.8" font-family="Times,serif" font-size="14.00" style="">IYieldTrustVault</text>
</g>
<!-- IERC4626 -->
<g id="node44" class="node" pointer-events="visible" data-name="IERC4626">

<ellipse fill="none" stroke="rgb(229,229,229)" cx="3092.35" cy="-378" rx="52.2" ry="18" style=""/>
<text text-anchor="middle" x="3092.35" y="-373.8" font-family="Times,serif" font-size="14.00" style="">IERC4626</text>
</g>
<!-- IYieldTrustVault&#45;&gt;IERC4626 -->
<g id="edge33" class="edge" data-name="IYieldTrustVault-&gt;IERC4626">

<path fill="none" stroke="rgb(229,229,229)" d="M3092.35,-431.7C3092.35,-423.98 3092.35,-414.71 3092.35,-406.11" style=""/>
<polygon fill="rgb(229,229,229)" stroke="rgb(229,229,229)" points="3095.85,-406.1 3092.35,-396.1 3088.85,-406.1 3095.85,-406.1" style=""/>
</g>
<!-- IAavePoolAddressesProvider -->
<g id="node45" class="node" pointer-events="visible" data-name="IAavePoolAddressesProvider">

<ellipse fill="none" stroke="rgb(229,229,229)" cx="3313.35" cy="-450" rx="125.08" ry="18" style=""/>
<text text-anchor="middle" x="3313.35" y="-445.8" font-family="Times,serif" font-size="14.00" style="">IAavePoolAddressesProvider</text>
</g>
<!-- TokenURILogic -->
<g id="node46" class="node" pointer-events="visible" data-name="TokenURILogic">

<ellipse fill="none" stroke="rgb(229,229,229)" cx="3531.35" cy="-450" rx="74.73" ry="18" style=""/>
<text text-anchor="middle" x="3531.35" y="-445.8" font-family="Times,serif" font-size="14.00" style="">TokenURILogic</text>
</g>
<!-- Base64 -->
<g id="node47" class="node" pointer-events="visible" data-name="Base64">

<ellipse fill="none" stroke="rgb(229,229,229)" cx="3663.35" cy="-450" rx="39.43" ry="18" style=""/>
<text text-anchor="middle" x="3663.35" y="-445.8" font-family="Times,serif" font-size="14.00" style="">Base64</text>
</g>
<!-- ERC721Enumerable&#45;&gt;ERC721 -->
<g id="edge36" class="edge" data-name="ERC721Enumerable-&gt;ERC721">

<path fill="none" stroke="black" d="M310.02,-287.7C313.06,-279.81 316.73,-270.3 320.11,-261.55" style=""/>
<polygon fill="black" stroke="black" points="323.42,-262.69 323.75,-252.1 316.89,-260.17 323.42,-262.69" style=""/>
</g>
<!-- IERC721Enumerable -->
<g id="node49" class="node" pointer-events="visible" data-name="IERC721Enumerable">

<ellipse fill="none" stroke="black" cx="174.35" cy="-234" rx="94.34" ry="18" style=""/>
<text text-anchor="middle" x="174.35" y="-229.8" font-family="Times,serif" font-size="14.00" style="">IERC721Enumerable</text>
</g>
<!-- ERC721Enumerable&#45;&gt;IERC721Enumerable -->
<g id="edge37" class="edge" data-name="ERC721Enumerable-&gt;IERC721Enumerable">

<path fill="none" stroke="black" d="M273.75,-288.94C255.77,-279.18 232.61,-266.62 213.17,-256.07" style=""/>
<polygon fill="black" stroke="black" points="214.71,-252.92 204.25,-251.23 211.37,-259.07 214.71,-252.92" style=""/>
</g>
<!-- IERC721Enumerable&#45;&gt;IERC721 -->
<g id="edge38" class="edge" data-name="IERC721Enumerable-&gt;IERC721">

<path fill="none" stroke="black" d="M148.22,-216.7C136.11,-207.56 122.95,-194.98 116.35,-180 107.56,-160.07 112.47,-135.5 118.78,-117.23" style=""/>
<polygon fill="black" stroke="black" points="122.09,-118.38 122.35,-107.79 115.54,-115.9 122.09,-118.38" style=""/>
</g>
</g>
</svg>